HIERARCHY
ROOT hip
{
	OFFSET 0.000000 0.000000 0.000000 
	CHANNELS 6 Xposition Yposition Zposition Xrotation Zrotation Yrotation
	JOINT abdomen
	{
		OFFSET 0.000000 3.402643 0.000000 
		CHANNELS 3 Xrotation Zrotation Yrotation
		JOINT chest
		{
			OFFSET 0.000000 8.438565 -0.680529 
			CHANNELS 3 Xrotation Zrotation Yrotation
			JOINT neck
			{
				OFFSET 0.000000 10.207942 -0.272212 
				CHANNELS 3 Xrotation Zrotation Yrotation
				JOINT head
				{
					OFFSET 0.000000 3.130431 0.000000 
					CHANNELS 3 Xrotation Zrotation Yrotation
					End Site
					{
						OFFSET 0.000000 3.130435 0.000000 
					}
				}
			}
			JOINT lCollar
			{
				OFFSET 3.470700 6.669187 -0.816635 
				CHANNELS 3 Yrotation Zrotation Xrotation
				JOINT lShldr
				{
					OFFSET 3.198488 0.000000 0.000000 
					CHANNELS 3 Zrotation Yrotation Xrotation
					JOINT lForeArm
					{
						OFFSET 10.139888 0.000000 0.000000 
						CHANNELS 3 Yrotation Zrotation Xrotation
						JOINT lHand
						{
							OFFSET 8.370511 0.000000 0.000000 
							CHANNELS 3 Zrotation Yrotation Xrotation
							End Site
							{
								OFFSET 4.083176 0.000000 0.000000 
							}
						}
					}
				}
			}
			JOINT rCollar
			{
				OFFSET -3.470700 6.669187 -0.816635 
				CHANNELS 3 Yrotation Zrotation Xrotation
				JOINT rShldr
				{
					OFFSET -3.198488 0.000000 0.000000 
					CHANNELS 3 Zrotation Yrotation Xrotation
					JOINT rForeArm
					{
						OFFSET -10.139888 0.000000 0.000000 
						CHANNELS 3 Yrotation Zrotation Xrotation
						JOINT rHand
						{
							OFFSET -8.370511 0.000000 0.000000 
							CHANNELS 3 Zrotation Yrotation Xrotation
							End Site
							{
								OFFSET -4.083176 0.000000 0.000000 
							}
						}
					}
				}
			}
		}
	}
	JOINT lThigh
	{
		OFFSET 5.308129 -1.633274 1.361059 
		CHANNELS 3 Xrotation Zrotation Yrotation
		JOINT lShin
		{
			OFFSET -2.041588 -20.007561 0.000000 
			CHANNELS 3 Xrotation Zrotation Yrotation
			JOINT lFoot
			{
				OFFSET 0.000000 -19.190928 -1.224953 
				CHANNELS 3 Xrotation Yrotation Zrotation
				End Site
				{
					OFFSET 0.000000 -2.449906 4.627600 
				}
			}
		}
	}
	JOINT rThigh
	{
		OFFSET -5.308129 -1.633274 1.361059 
		CHANNELS 3 Xrotation Zrotation Yrotation
		JOINT rShin
		{
			OFFSET 2.041588 -20.007561 0.000000 
			CHANNELS 3 Xrotation Zrotation Yrotation
			JOINT rFoot
			{
				OFFSET 0.000000 -19.190928 -1.224953 
				CHANNELS 3 Xrotation Yrotation Zrotation
				End Site
				{
					OFFSET 0.000000 -2.449906 4.627600 
				}
			}
		}
	}
}
MOTION
Frames: 18
Frame Time: 0.033333
-1.232123 48.718807 1.994458 1.047792 0.514990 5.732717 0.000000 0.000000 0.000000 -2.849898 -0.390621 -0.244202 4.453392 -0.048827 -0.312508 10.985529 -0.468749 0.097653 -0.792680 6.955607 -2.006838 -12.266750 -5.256287 -15.799571 -0.415483 -2.756820 6.247264 2.891729 -9.592052 -3.634825 0.442319 -4.969559 -1.998995 10.186091 -11.139081 -21.558029 12.189564 1.980182 2.558668 -6.464003 7.535959 -3.964767 -2.390217 5.901359 5.235873 13.653992 -2.782129 0.687727 -11.604770 0.409704 -3.814352 -1.669661 -9.389277 -8.240674 13.766094 3.787249 -11.843400 -10.506552 -0.658656 7.133823 
-1.141033 48.716389 1.926284 1.174899 0.417808 5.752156 0.000000 0.000000 0.000000 -2.899267 -0.263669 -0.244183 4.013416 0.107422 -0.136719 11.588547 -0.615226 0.302717 -1.378279 4.983097 -2.018728 -14.869062 -3.979847 -14.687262 -4.539784 -2.631722 5.105313 3.390076 -11.049972 -3.712782 1.024324 -2.801738 -2.033239 13.257608 -15.683005 -20.576035 24.695555 1.931861 4.594860 -6.787840 5.446850 -3.904849 -2.723855 5.925589 5.272354 13.947313 -2.892108 0.560300 -11.710810 0.367198 -3.597549 -1.815998 -9.427338 -8.220704 13.647317 3.805986 -11.820741 -10.342370 -0.659082 7.184595 
-1.021480 48.699409 1.861551 1.443442 0.369225 5.752085 0.000000 0.000000 0.000000 -2.986888 -0.263668 -0.302776 3.310053 0.322265 -0.087889 11.882935 -0.244134 0.429684 -1.895659 3.215786 -2.091914 -18.789463 0.312105 -13.341639 -15.637153 -2.448919 5.680121 1.351531 -9.987247 -3.457573 1.618578 -0.890530 -2.118478 16.595596 -17.731995 -19.837034 31.555796 1.906792 7.281085 -6.168355 4.301569 -3.811982 -3.271742 5.869343 5.219808 14.399912 -3.018256 0.508035 -11.884103 0.327350 -3.401793 -2.225845 -9.543380 -8.111595 13.777343 3.719820 -11.898662 -10.261395 -0.684689 7.419289 
-0.864316 48.685429 1.832198 1.307541 0.466309 5.849813 0.000000 0.000000 0.000000 -2.771515 -0.322260 -0.341846 2.694966 0.253906 -0.078124 11.987266 0.947253 0.293090 -2.449714 1.547503 -1.913162 -22.550230 2.513041 -11.238137 -21.441826 -2.704295 6.061490 -1.207722 -8.882754 -3.192927 1.985485 0.636508 -1.932653 20.421673 -18.970613 -18.617390 36.773609 2.002311 9.202298 -4.132702 2.914871 -3.641840 -3.259917 5.621058 5.161980 14.598645 -3.057636 0.412948 -12.012804 0.352366 -3.183608 -2.108878 -9.835902 -8.246210 13.918616 3.707253 -11.762486 -10.291079 -0.687582 7.602270 
-0.691994 48.668079 1.746447 1.328582 0.466152 6.035432 0.000000 0.000000 0.000000 -2.643755 -0.400381 -0.390684 1.989890 0.449213 -0.292960 12.055257 1.640619 0.156466 -3.113875 -0.212897 -1.833222 -25.835476 4.363972 -8.324903 -25.856846 -3.237916 6.587943 -4.694954 -7.500263 -2.895725 2.280162 2.222277 -1.855682 24.138987 -19.703730 -16.793831 40.775490 2.083033 10.715322 -0.027791 1.602780 -3.436701 -3.600511 5.394846 5.003750 15.059253 -3.048373 0.383308 -12.188092 0.324995 -2.926711 -2.187230 -10.143027 -8.427280 14.032479 3.798536 -11.686384 -10.208168 -0.705024 7.743397 
-0.492851 48.654617 1.667555 1.458832 0.475618 6.308861 0.000000 0.000000 0.000000 -2.660959 -0.478489 -0.605529 1.421458 0.478496 -0.517560 11.641909 2.509766 0.029696 -3.735907 -2.162289 -1.901557 -29.044161 5.909433 -5.680295 -29.084015 -3.744332 7.827453 -7.873568 -6.111142 -2.707759 3.131633 3.617147 -1.934982 27.769897 -20.791725 -14.457130 43.815510 2.197787 11.811351 4.236859 1.331247 -3.269337 -4.012525 5.125059 4.798599 15.401930 -3.048731 0.477702 -12.284577 0.302136 -2.666838 -2.333897 -10.368310 -8.415148 14.011991 3.681019 -11.885821 -10.048439 -0.749416 8.064320 
-0.298833 48.651077 1.596464 1.424497 0.329875 6.533319 0.000000 0.000000 0.000000 -2.552257 -0.458941 -0.791069 0.869364 0.615160 -0.888621 11.158445 2.685544 -0.078039 -4.180409 -3.900696 -1.845313 -32.028866 7.189578 -2.927762 -31.740532 -4.234913 9.811737 -11.015882 -4.574138 -2.613734 3.657799 5.359414 -1.919333 30.959967 -21.228994 -11.719804 46.274208 2.409250 12.073306 6.906888 1.192364 -3.170189 -4.262930 5.081426 4.812955 15.784656 -3.107639 0.328662 -12.410090 0.277518 -2.386090 -2.148231 -10.393828 -8.440480 13.610246 3.650882 -12.083735 -9.745577 -0.711417 8.270381 
-0.088080 48.632713 1.543991 1.276108 0.135738 6.865262 0.000000 0.000000 0.000000 -2.366755 -0.351506 -1.025432 0.564488 0.527214 -1.269567 10.090488 3.007765 -0.322334 -4.522025 -5.774564 -1.732284 -34.862480 8.344321 -0.978803 -34.384830 -4.571487 11.088642 -15.134031 -2.788449 -2.592858 3.819467 7.001073 -1.837331 33.766312 -21.398674 -8.671347 48.454849 2.631351 12.699817 9.055176 0.384115 -3.152649 -4.510806 5.125670 4.908928 16.403782 -3.235497 -0.108079 -12.683338 0.207555 -1.965521 -1.884648 -10.305797 -8.324080 13.329413 3.417654 -12.625524 -9.398810 -0.755744 8.683362 
0.129903 48.616993 1.497709 1.171875 0.000000 7.285156 0.000000 0.000000 0.000000 -2.229777 -0.312431 -1.201207 0.222292 0.429518 -1.611356 9.448427 2.958885 -0.469133 -4.579502 -6.806900 -1.626736 -38.628895 8.960014 0.879211 -36.465897 -4.918737 11.706087 -16.505058 0.196906 -2.981149 4.033835 8.677367 -1.805295 36.072399 -21.871185 -5.362346 50.226158 2.875373 14.522843 9.762149 1.052795 -3.058993 -4.742671 4.986027 4.744188 16.852736 -3.157414 -0.508048 -12.876101 0.208534 -1.660444 -1.552589 -10.393042 -8.474560 12.983438 3.424944 -12.941238 -9.167300 -0.722129 8.984565 
0.364154 48.611221 1.421468 1.283829 -0.116224 7.353520 0.000000 0.000000 0.000000 -2.346325 -0.390559 -1.054729 0.189818 0.517353 -1.689473 8.534754 2.763512 -0.615931 -4.906116 -7.313266 -1.775662 -42.369659 9.943492 2.891060 -38.277493 -5.420188 11.375731 -16.550110 1.295821 -3.154017 4.465592 9.677821 -1.977372 39.291740 -22.206709 -2.902934 51.448078 3.177392 14.250168 9.066401 0.180368 -3.175283 -5.038574 4.843153 4.739183 17.133806 -3.244996 -0.567713 -13.027824 0.162194 -1.324673 -1.543171 -10.534392 -8.471012 12.583738 3.374959 -13.052213 -8.762037 -0.723163 9.189198 
0.609650 48.619251 1.335120 1.418976 -0.125867 7.500003 0.000000 0.000000 0.000000 -2.421672 -0.517482 -1.103647 -0.011573 0.370913 -1.787135 8.483481 2.812316 -0.654946 -4.875688 -8.118063 -1.867820 -45.460968 10.666481 4.697802 -39.890148 -5.657523 12.466141 -16.541605 1.312281 -3.168686 4.660870 10.493718 -2.091065 42.580978 -22.259851 -1.385613 52.021275 3.511343 14.144876 7.770535 0.270106 -3.205812 -5.231277 4.557393 4.660063 17.083158 -3.349087 -0.617045 -12.925437 0.121133 -0.908946 -1.426284 -10.749557 -8.535316 12.013844 3.265431 -13.335748 -8.286506 -0.704146 9.454554 
0.854641 48.613976 1.235272 1.483877 -0.445315 7.558820 0.000000 0.000000 0.000000 -2.451967 -0.478432 -1.074263 -0.148608 0.370903 -1.835962 8.688394 3.007518 -0.801728 -4.816345 -8.304077 -1.888650 -49.046253 11.376521 5.545908 -41.392334 -5.588009 13.052892 -15.982661 1.646861 -3.231912 4.917340 11.590903 -2.197352 45.497196 -22.318819 -0.769068 52.613438 3.758605 14.179885 7.191648 -0.736491 -3.301222 -5.663449 4.550229 4.623878 17.507832 -3.372664 -0.610097 -13.084380 0.067464 -0.543902 -1.230644 -10.613439 -8.424360 11.205088 3.139525 -13.684996 -7.656163 -0.640092 9.713791 
1.109160 48.617367 1.126310 1.541424 -0.590352 7.685942 0.000000 0.000000 0.000000 -2.478940 -0.566294 -1.142715 -0.183104 0.214719 -1.953111 9.074178 3.124648 -0.860227 -4.869089 -8.777237 -1.939555 -51.773151 12.080397 6.626491 -42.522243 -5.846863 12.103491 -14.293720 2.393465 -3.356278 5.015538 12.081755 -2.250798 48.982174 -22.274183 -0.866805 52.644169 3.953847 14.284019 6.494522 -0.851114 -3.329950 -5.911546 4.301168 4.470526 17.646393 -3.351590 -0.460878 -13.056311 0.028231 -0.247474 -1.016289 -10.718727 -8.505282 10.441675 3.110909 -13.923997 -7.047287 -0.626151 9.927837 
1.330075 48.612705 1.059289 1.130432 -1.006055 7.872273 0.000000 0.000000 0.000000 -2.207496 -0.429587 -1.240273 -0.005964 0.156136 -2.187492 9.508218 3.036659 -0.987530 -4.927780 -9.078391 -1.694450 -53.929714 12.527991 7.857910 -43.491928 -5.967679 12.745990 -13.793589 3.263638 -3.478614 4.998290 12.498552 -2.054443 52.427776 -22.265287 -1.419429 52.632996 4.116859 13.919157 5.687087 -1.421805 -3.388636 -5.882308 4.544969 4.708192 18.184828 -3.378229 -0.881767 -13.281179 -0.012293 0.113823 -0.059040 -10.399807 -8.539207 9.226453 3.092878 -14.046318 -6.358175 -0.575339 10.037586 
1.585558 48.602516 0.946445 1.048047 -1.082980 8.048198 0.000000 0.000000 0.000000 -2.105942 -0.595557 -1.269666 0.109888 -0.058542 -2.412118 9.872081 2.958385 -1.153832 -4.974180 -9.435158 -1.617485 -55.581551 12.874583 8.950780 -44.629028 -5.975514 13.620385 -13.791391 3.411003 -3.494111 4.972425 12.663526 -1.957405 55.612041 -22.269077 -2.125042 52.307777 4.259344 13.778145 4.786303 -1.393744 -3.398440 -6.068094 4.311209 4.622640 18.418839 -3.446696 -0.966136 -13.299239 -0.049311 0.520802 0.213389 -10.548120 -8.694470 8.697694 3.042982 -14.270139 -5.870739 -0.550160 10.279326 
1.826437 48.595078 0.789539 1.076260 -1.401387 8.244482 0.000000 0.000000 0.000000 -2.025949 -0.605281 -1.425908 0.143880 -0.156086 -2.626970 10.328499 2.889958 -1.231858 -5.051488 -9.468022 -1.548504 -56.955418 13.041790 10.046142 -45.413532 -6.012184 14.417588 -12.634508 3.473561 -3.502449 4.893791 12.972855 -1.910221 58.186237 -22.175211 -2.673213 51.901707 4.478572 12.655932 4.401525 -0.496666 -3.358316 -6.508785 4.322352 4.558404 18.820021 -3.450103 -1.150224 -13.354515 -0.082682 0.918869 0.496995 -10.464025 -8.725223 7.797179 3.021523 -14.370064 -5.232074 -0.505628 10.396381 
2.069010 48.572166 0.599191 1.050132 -1.555479 8.381894 0.000000 0.000000 0.000000 -1.837117 -0.722423 -1.455209 0.320034 -0.360914 -2.744210 10.497121 2.880027 -1.378648 -5.105509 -9.557977 -1.389989 -58.393383 13.169043 10.218814 -46.093460 -5.909123 14.575070 -11.675116 3.401103 -3.497042 4.881090 13.102688 -1.749703 60.200687 -21.897333 -2.517757 51.888725 4.668244 11.655156 3.866117 -1.533466 -3.420184 -6.907635 4.165297 4.501564 19.220850 -3.469607 -1.258901 -13.389430 -0.162726 1.314596 0.477679 -10.611145 -8.853841 7.503456 3.030531 -14.388997 -4.782431 -0.482442 10.572809 
2.305077 48.543205 0.396267 1.297680 -1.737756 8.666091 0.000000 0.000000 0.000000 -1.881780 -0.810234 -1.592052 0.350907 -0.536345 -3.056781 10.760527 2.596726 -1.534725 -5.319717 -9.656839 -1.429523 -59.961887 13.441438 9.712840 -46.702713 -5.738722 13.718246 -9.880550 4.093783 -3.567048 4.865665 13.177508 -1.801597 61.765633 -21.804972 -1.656278 51.920460 4.744843 13.453081 1.880005 -2.469868 -3.478071 -7.668470 3.989668 4.340952 19.703358 -3.548419 -1.304559 -13.413337 -0.257869 1.724350 0.097238 -10.778027 -8.963870 7.447801 3.111006 -14.496062 -4.494530 -0.454398 10.734496 
